{
	"asset":{
		"generator":"Khronos glTF Blender I/O v5.0.21",
		"version":"2.0"
	},
	"scene":0,
	"scenes":[
		{
			"name":"Scene",
			"nodes":[
				0,
				1,
				2,
				3,
				4,
				5,
				6,
				7,
				8,
				9,
				10,
				11,
				12,
				13,
				14,
				15
			]
		}
	],
	"nodes":[
		{
			"name":"Empty",
			"rotation":[
				0.5013728737831116,
				0.4985344409942627,
				-0.5068965554237366,
				0.49309685826301575
			],
			"scale":[
				0.31314870715141296,
				0.31314876675605774,
				0.31314873695373535
			],
			"translation":[
				-0.4015195965766907,
				0.15241968631744385,
				-0.013452793471515179
			]
		},
		{
			"mesh":0,
			"name":"inner_socket",
			"scale":[
				0.0592147558927536,
				0.10574064403772354,
				0.0592147558927536
			],
			"translation":[
				0.3166249990463257,
				-0.12019309401512146,
				0.010608426295220852
			]
		},
		{
			"mesh":1,
			"name":"socket_srew",
			"scale":[
				0.8442891836166382,
				0.8611649870872498,
				0.8288693428039551
			],
			"translation":[
				0.3165755569934845,
				-0.19894357025623322,
				0.01041529793292284
			]
		},
		{
			"mesh":2,
			"name":"bulb_glass",
			"scale":[
				0.0592147558927536,
				0.10574064403772354,
				0.0592147558927536
			],
			"translation":[
				0.3166249990463257,
				-0.12019309401512146,
				0.010608426295220852
			]
		},
		{
			"mesh":3,
			"name":"glass_glue",
			"scale":[
				-0.07228295505046844,
				-0.02526887133717537,
				-0.07228295505046844
			],
			"translation":[
				0.31685182452201843,
				-0.03138884902000427,
				0.010393857955932617
			]
		},
		{
			"mesh":4,
			"name":"lower_glass_tube",
			"scale":[
				-0.0116124814376235,
				-0.13802511990070343,
				-0.0116124814376235
			],
			"translation":[
				0.3167336881160736,
				-0.067835234105587,
				0.01058944221585989
			]
		},
		{
			"mesh":5,
			"name":"left_connection",
			"rotation":[
				-0.013149838894605637,
				0,
				0,
				0.9999136328697205
			],
			"scale":[
				-0.0010000000474974513,
				-0.20000000298023224,
				-0.0010000000474974513
			],
			"translation":[
				0.3165113627910614,
				0.014739093370735645,
				0.0404021181166172
			]
		},
		{
			"mesh":6,
			"name":"right_connection",
			"scale":[
				-0.0010000000474974513,
				-0.20000000298023224,
				-0.0010000000474974513
			],
			"translation":[
				0.3165113627910614,
				0.014182405546307564,
				-0.022227369248867035
			]
		},
		{
			"mesh":7,
			"name":"left_filament_connection",
			"rotation":[
				-0.5239711403846741,
				-0.5239711403846741,
				-0.47482022643089294,
				0.47482019662857056
			],
			"scale":[
				-0.010964985936880112,
				-0.023317191749811172,
				-0.031600937247276306
			],
			"translation":[
				0.3173218071460724,
				0.22878900170326233,
				0.03169061988592148
			]
		},
		{
			"mesh":8,
			"name":"right_filament_connection",
			"rotation":[
				-0.49113214015960693,
				-0.49113211035728455,
				-0.5087133646011353,
				0.5087133646011353
			],
			"scale":[
				-0.010964984074234962,
				-0.023317191749811172,
				-0.031600937247276306
			],
			"translation":[
				0.3173218071460724,
				0.22941242158412933,
				-0.019741714000701904
			]
		},
		{
			"mesh":9,
			"name":"metal_stamd",
			"scale":[
				0.015202760696411133,
				0.07341504096984863,
				0.028368353843688965
			],
			"translation":[
				0.3184284269809723,
				0.1898445039987564,
				-0.037272535264492035
			]
		},
		{
			"mesh":10,
			"name":"left_filament",
			"translation":[
				0.3160000145435333,
				0.22109508514404297,
				0.02800000086426735
			]
		},
		{
			"mesh":11,
			"name":"right_filament",
			"translation":[
				0.3160000145435333,
				0.22109508514404297,
				-0.012814115732908249
			]
		},
		{
			"mesh":12,
			"name":"filament_top",
			"rotation":[
				0.5,
				-0.5,
				0.5,
				0.5
			],
			"scale":[
				0.052125245332717896,
				0.5521251559257507,
				0.5521251559257507
			],
			"translation":[
				0.3165242373943329,
				-0.11773646622896194,
				0.0028718262910842896
			]
		},
		{
			"mesh":13,
			"name":"bulb_capsule",
			"scale":[
				-0.0602014921605587,
				-0.0847473219037056,
				-0.06000912934541702
			],
			"translation":[
				0.31677600741386414,
				0.37329378724098206,
				0.008235889486968517
			]
		},
		{
			"mesh":14,
			"name":"inner_socket.001",
			"translation":[
				0.3166249990463257,
				-0.12019309401512146,
				0.010608426295220852
			]
		}
	],
	"materials":[
		{
			"doubleSided":true,
			"name":"Material.013"
		},
		{
			"doubleSided":true,
			"name":"Material.001"
		},
		{
			"doubleSided":true,
			"name":"Material.012"
		},
		{
			"doubleSided":true,
			"name":"Material"
		},
		{
			"doubleSided":true,
			"name":"Material.004"
		},
		{
			"doubleSided":true,
			"name":"Material.002"
		},
		{
			"doubleSided":true,
			"name":"Material.006"
		},
		{
			"doubleSided":true,
			"name":"Material.007"
		},
		{
			"doubleSided":true,
			"name":"Material.008"
		},
		{
			"doubleSided":true,
			"name":"Material.009"
		},
		{
			"doubleSided":true,
			"name":"Material.005"
		},
		{
			"doubleSided":true,
			"name":"Material.010"
		},
		{
			"doubleSided":true,
			"name":"Material.011"
		},
		{
			"doubleSided":true,
			"name":"Material.003"
		},
		{
			"doubleSided":true,
			"name":"Material.016"
		},
		{
			"doubleSided":true,
			"name":"Material.015"
		}
	],
	"meshes":[
		{
			"name":"Cylinder.001",
			"primitives":[
				{
					"attributes":{
						"POSITION":0,
						"NORMAL":1,
						"TEXCOORD_0":2
					},
					"indices":3,
					"material":0
				},
				{
					"attributes":{
						"POSITION":4,
						"NORMAL":5,
						"TEXCOORD_0":6
					},
					"indices":7,
					"material":1
				}
			]
		},
		{
			"name":"Spiral",
			"primitives":[
				{
					"attributes":{
						"POSITION":8,
						"NORMAL":9,
						"TEXCOORD_0":10
					},
					"indices":11,
					"material":2
				}
			]
		},
		{
			"name":"Cylinder.003",
			"primitives":[
				{
					"attributes":{
						"POSITION":12,
						"NORMAL":13,
						"TEXCOORD_0":14
					},
					"indices":15,
					"material":3
				}
			]
		},
		{
			"name":"Cylinder",
			"primitives":[
				{
					"attributes":{
						"POSITION":16,
						"NORMAL":17,
						"TEXCOORD_0":18
					},
					"indices":19,
					"material":4
				}
			]
		},
		{
			"name":"Cylinder.006",
			"primitives":[
				{
					"attributes":{
						"POSITION":20,
						"NORMAL":21,
						"TEXCOORD_0":22
					},
					"indices":23,
					"material":5
				}
			]
		},
		{
			"name":"Cylinder.007",
			"primitives":[
				{
					"attributes":{
						"POSITION":24,
						"NORMAL":25,
						"TEXCOORD_0":26
					},
					"indices":27,
					"material":6
				}
			]
		},
		{
			"name":"Cylinder.008",
			"primitives":[
				{
					"attributes":{
						"POSITION":28,
						"NORMAL":29,
						"TEXCOORD_0":30
					},
					"indices":31,
					"material":7
				}
			]
		},
		{
			"name":"Plane",
			"primitives":[
				{
					"attributes":{
						"POSITION":32,
						"NORMAL":33,
						"TEXCOORD_0":34
					},
					"indices":35,
					"material":8
				}
			]
		},
		{
			"name":"Plane.001",
			"primitives":[
				{
					"attributes":{
						"POSITION":36,
						"NORMAL":37,
						"TEXCOORD_0":38
					},
					"indices":35,
					"material":9
				}
			]
		},
		{
			"name":"Cube",
			"primitives":[
				{
					"attributes":{
						"POSITION":39,
						"NORMAL":40,
						"TEXCOORD_0":41
					},
					"indices":42,
					"material":10
				}
			]
		},
		{
			"name":"Spiral.001",
			"primitives":[
				{
					"attributes":{
						"POSITION":43,
						"NORMAL":44,
						"TEXCOORD_0":45
					},
					"indices":46,
					"material":11
				}
			]
		},
		{
			"name":"Spiral.002",
			"primitives":[
				{
					"attributes":{
						"POSITION":47,
						"NORMAL":48,
						"TEXCOORD_0":49
					},
					"indices":50,
					"material":12
				}
			]
		},
		{
			"name":"NurbsCurve",
			"primitives":[
				{
					"attributes":{
						"POSITION":51,
						"NORMAL":52,
						"TEXCOORD_0":53
					},
					"indices":54,
					"material":13
				}
			]
		},
		{
			"name":"Cylinder.010",
			"primitives":[
				{
					"attributes":{
						"POSITION":55,
						"NORMAL":56,
						"TEXCOORD_0":57
					},
					"indices":58,
					"material":14
				}
			]
		},
		{
			"name":"Cylinder.002",
			"primitives":[
				{
					"attributes":{
						"POSITION":59,
						"NORMAL":60,
						"TEXCOORD_0":61
					},
					"indices":62,
					"material":15
				}
			]
		}
	],
	"accessors":[
		{
			"bufferView":0,
			"componentType":5126,
			"count":613,
			"max":[
				1.2404550313949585,
				1.138785719871521,
				1.2404550313949585
			],
			"min":[
				-1.2404550313949585,
				-1.361761212348938,
				-1.2404550313949585
			],
			"type":"VEC3"
		},
		{
			"bufferView":1,
			"componentType":5126,
			"count":613,
			"type":"VEC3"
		},
		{
			"bufferView":2,
			"componentType":5126,
			"count":613,
			"type":"VEC2"
		},
		{
			"bufferView":3,
			"componentType":5123,
			"count":1818,
			"type":"SCALAR"
		},
		{
			"bufferView":4,
			"componentType":5126,
			"count":66,
			"max":[
				0.8397781848907471,
				-1.0004234313964844,
				0.8397782444953918
			],
			"min":[
				-0.8397782444953918,
				-1.2672518491744995,
				-0.8397782444953918
			],
			"type":"VEC3"
		},
		{
			"bufferView":5,
			"componentType":5126,
			"count":66,
			"type":"VEC3"
		},
		{
			"bufferView":6,
			"componentType":5126,
			"count":66,
			"type":"VEC2"
		},
		{
			"bufferView":7,
			"componentType":5123,
			"count":192,
			"type":"SCALAR"
		},
		{
			"bufferView":8,
			"componentType":5126,
			"count":954,
			"max":[
				0.07991825044155121,
				0.15996046364307404,
				0.07955608516931534
			],
			"min":[
				-0.07999445497989655,
				-0.007668656297028065,
				-0.07953382283449173
			],
			"type":"VEC3"
		},
		{
			"bufferView":9,
			"componentType":5126,
			"count":954,
			"type":"VEC3"
		},
		{
			"bufferView":10,
			"componentType":5126,
			"count":954,
			"type":"VEC2"
		},
		{
			"bufferView":11,
			"componentType":5123,
			"count":5496,
			"type":"SCALAR"
		},
		{
			"bufferView":12,
			"componentType":5126,
			"count":295,
			"max":[
				3.4964983463287354,
				5.922496795654297,
				3.4964983463287354
			],
			"min":[
				-3.4964983463287354,
				1.1303651332855225,
				-3.4964983463287354
			],
			"type":"VEC3"
		},
		{
			"bufferView":13,
			"componentType":5126,
			"count":295,
			"type":"VEC3"
		},
		{
			"bufferView":14,
			"componentType":5126,
			"count":295,
			"type":"VEC2"
		},
		{
			"bufferView":15,
			"componentType":5123,
			"count":1536,
			"type":"SCALAR"
		},
		{
			"bufferView":16,
			"componentType":5126,
			"count":260,
			"max":[
				1,
				1,
				1
			],
			"min":[
				-1,
				-1,
				-1
			],
			"type":"VEC3"
		},
		{
			"bufferView":17,
			"componentType":5126,
			"count":260,
			"type":"VEC3"
		},
		{
			"bufferView":18,
			"componentType":5126,
			"count":260,
			"type":"VEC2"
		},
		{
			"bufferView":19,
			"componentType":5123,
			"count":768,
			"type":"SCALAR"
		},
		{
			"bufferView":20,
			"componentType":5126,
			"count":130,
			"max":[
				1,
				1,
				1
			],
			"min":[
				-1,
				-1,
				-1
			],
			"type":"VEC3"
		},
		{
			"bufferView":21,
			"componentType":5126,
			"count":130,
			"type":"VEC3"
		},
		{
			"bufferView":22,
			"componentType":5126,
			"count":130,
			"type":"VEC2"
		},
		{
			"bufferView":23,
			"componentType":5123,
			"count":372,
			"type":"SCALAR"
		},
		{
			"bufferView":24,
			"componentType":5126,
			"count":130,
			"max":[
				1,
				1,
				1
			],
			"min":[
				-1,
				-1,
				-1
			],
			"type":"VEC3"
		},
		{
			"bufferView":25,
			"componentType":5126,
			"count":130,
			"type":"VEC3"
		},
		{
			"bufferView":26,
			"componentType":5126,
			"count":130,
			"type":"VEC2"
		},
		{
			"bufferView":27,
			"componentType":5123,
			"count":372,
			"type":"SCALAR"
		},
		{
			"bufferView":28,
			"componentType":5126,
			"count":130,
			"max":[
				1,
				1,
				1
			],
			"min":[
				-1,
				-1,
				-1
			],
			"type":"VEC3"
		},
		{
			"bufferView":29,
			"componentType":5126,
			"count":130,
			"type":"VEC3"
		},
		{
			"bufferView":30,
			"componentType":5126,
			"count":130,
			"type":"VEC2"
		},
		{
			"bufferView":31,
			"componentType":5123,
			"count":372,
			"type":"SCALAR"
		},
		{
			"bufferView":32,
			"componentType":5126,
			"count":4,
			"max":[
				1,
				0,
				1
			],
			"min":[
				-1,
				0,
				-1
			],
			"type":"VEC3"
		},
		{
			"bufferView":33,
			"componentType":5126,
			"count":4,
			"type":"VEC3"
		},
		{
			"bufferView":34,
			"componentType":5126,
			"count":4,
			"type":"VEC2"
		},
		{
			"bufferView":35,
			"componentType":5123,
			"count":6,
			"type":"SCALAR"
		},
		{
			"bufferView":36,
			"componentType":5126,
			"count":4,
			"max":[
				1,
				0,
				1
			],
			"min":[
				-1,
				0,
				-1
			],
			"type":"VEC3"
		},
		{
			"bufferView":37,
			"componentType":5126,
			"count":4,
			"type":"VEC3"
		},
		{
			"bufferView":38,
			"componentType":5126,
			"count":4,
			"type":"VEC2"
		},
		{
			"bufferView":39,
			"componentType":5126,
			"count":66,
			"max":[
				1,
				1,
				1
			],
			"min":[
				-1,
				-1,
				-1
			],
			"type":"VEC3"
		},
		{
			"bufferView":40,
			"componentType":5126,
			"count":66,
			"type":"VEC3"
		},
		{
			"bufferView":41,
			"componentType":5126,
			"count":66,
			"type":"VEC2"
		},
		{
			"bufferView":42,
			"componentType":5123,
			"count":120,
			"type":"SCALAR"
		},
		{
			"bufferView":43,
			"componentType":5126,
			"count":10933,
			"max":[
				0.001999999163672328,
				0.16891653835773468,
				0.0019914431031793356
			],
			"min":[
				-0.001999871339648962,
				-0.0007221744162961841,
				-0.0019916780292987823
			],
			"type":"VEC3"
		},
		{
			"bufferView":44,
			"componentType":5126,
			"count":10933,
			"type":"VEC3"
		},
		{
			"bufferView":45,
			"componentType":5126,
			"count":10933,
			"type":"VEC2"
		},
		{
			"bufferView":46,
			"componentType":5123,
			"count":60540,
			"type":"SCALAR"
		},
		{
			"bufferView":47,
			"componentType":5126,
			"count":10933,
			"max":[
				0.001999999163672328,
				0.16891653835773468,
				0.0019914431031793356
			],
			"min":[
				-0.001999871339648962,
				-0.0007221744162961841,
				-0.0019916780292987823
			],
			"type":"VEC3"
		},
		{
			"bufferView":48,
			"componentType":5126,
			"count":10933,
			"type":"VEC3"
		},
		{
			"bufferView":49,
			"componentType":5126,
			"count":10933,
			"type":"VEC2"
		},
		{
			"bufferView":50,
			"componentType":5123,
			"count":60540,
			"type":"SCALAR"
		},
		{
			"bufferView":51,
			"componentType":5126,
			"count":828,
			"max":[
				0.5000272989273071,
				0.001500001992098987,
				-0.914425253868103
			],
			"min":[
				-0.3172372579574585,
				-0.0015000010607764125,
				-0.9737064838409424
			],
			"type":"VEC3"
		},
		{
			"bufferView":52,
			"componentType":5126,
			"count":828,
			"type":"VEC3"
		},
		{
			"bufferView":53,
			"componentType":5126,
			"count":828,
			"type":"VEC2"
		},
		{
			"bufferView":54,
			"componentType":5123,
			"count":4620,
			"type":"SCALAR"
		},
		{
			"bufferView":55,
			"componentType":5126,
			"count":4216,
			"max":[
				1,
				2.4017622470855713,
				1
			],
			"min":[
				-1,
				-1.1273162364959717,
				-1
			],
			"type":"VEC3"
		},
		{
			"bufferView":56,
			"componentType":5126,
			"count":4216,
			"type":"VEC3"
		},
		{
			"bufferView":57,
			"componentType":5126,
			"count":4216,
			"type":"VEC2"
		},
		{
			"bufferView":58,
			"componentType":5123,
			"count":20712,
			"type":"SCALAR"
		},
		{
			"bufferView":59,
			"componentType":5126,
			"count":294,
			"max":[
				0.049993112683296204,
				0.231331929564476,
				0.049993112683296204
			],
			"min":[
				-0.049993112683296204,
				-0.08328128606081009,
				-0.049993112683296204
			],
			"type":"VEC3"
		},
		{
			"bufferView":60,
			"componentType":5126,
			"count":294,
			"type":"VEC3"
		},
		{
			"bufferView":61,
			"componentType":5126,
			"count":294,
			"type":"VEC2"
		},
		{
			"bufferView":62,
			"componentType":5123,
			"count":1488,
			"type":"SCALAR"
		}
	],
	"bufferViews":[
		{
			"buffer":0,
			"byteLength":7356,
			"byteOffset":0,
			"target":34962
		},
		{
			"buffer":0,
			"byteLength":7356,
			"byteOffset":7356,
			"target":34962
		},
		{
			"buffer":0,
			"byteLength":4904,
			"byteOffset":14712,
			"target":34962
		},
		{
			"buffer":0,
			"byteLength":3636,
			"byteOffset":19616,
			"target":34963
		},
		{
			"buffer":0,
			"byteLength":792,
			"byteOffset":23252,
			"target":34962
		},
		{
			"buffer":0,
			"byteLength":792,
			"byteOffset":24044,
			"target":34962
		},
		{
			"buffer":0,
			"byteLength":528,
			"byteOffset":24836,
			"target":34962
		},
		{
			"buffer":0,
			"byteLength":384,
			"byteOffset":25364,
			"target":34963
		},
		{
			"buffer":0,
			"byteLength":11448,
			"byteOffset":25748,
			"target":34962
		},
		{
			"buffer":0,
			"byteLength":11448,
			"byteOffset":37196,
			"target":34962
		},
		{
			"buffer":0,
			"byteLength":7632,
			"byteOffset":48644,
			"target":34962
		},
		{
			"buffer":0,
			"byteLength":10992,
			"byteOffset":56276,
			"target":34963
		},
		{
			"buffer":0,
			"byteLength":3540,
			"byteOffset":67268,
			"target":34962
		},
		{
			"buffer":0,
			"byteLength":3540,
			"byteOffset":70808,
			"target":34962
		},
		{
			"buffer":0,
			"byteLength":2360,
			"byteOffset":74348,
			"target":34962
		},
		{
			"buffer":0,
			"byteLength":3072,
			"byteOffset":76708,
			"target":34963
		},
		{
			"buffer":0,
			"byteLength":3120,
			"byteOffset":79780,
			"target":34962
		},
		{
			"buffer":0,
			"byteLength":3120,
			"byteOffset":82900,
			"target":34962
		},
		{
			"buffer":0,
			"byteLength":2080,
			"byteOffset":86020,
			"target":34962
		},
		{
			"buffer":0,
			"byteLength":1536,
			"byteOffset":88100,
			"target":34963
		},
		{
			"buffer":0,
			"byteLength":1560,
			"byteOffset":89636,
			"target":34962
		},
		{
			"buffer":0,
			"byteLength":1560,
			"byteOffset":91196,
			"target":34962
		},
		{
			"buffer":0,
			"byteLength":1040,
			"byteOffset":92756,
			"target":34962
		},
		{
			"buffer":0,
			"byteLength":744,
			"byteOffset":93796,
			"target":34963
		},
		{
			"buffer":0,
			"byteLength":1560,
			"byteOffset":94540,
			"target":34962
		},
		{
			"buffer":0,
			"byteLength":1560,
			"byteOffset":96100,
			"target":34962
		},
		{
			"buffer":0,
			"byteLength":1040,
			"byteOffset":97660,
			"target":34962
		},
		{
			"buffer":0,
			"byteLength":744,
			"byteOffset":98700,
			"target":34963
		},
		{
			"buffer":0,
			"byteLength":1560,
			"byteOffset":99444,
			"target":34962
		},
		{
			"buffer":0,
			"byteLength":1560,
			"byteOffset":101004,
			"target":34962
		},
		{
			"buffer":0,
			"byteLength":1040,
			"byteOffset":102564,
			"target":34962
		},
		{
			"buffer":0,
			"byteLength":744,
			"byteOffset":103604,
			"target":34963
		},
		{
			"buffer":0,
			"byteLength":48,
			"byteOffset":104348,
			"target":34962
		},
		{
			"buffer":0,
			"byteLength":48,
			"byteOffset":104396,
			"target":34962
		},
		{
			"buffer":0,
			"byteLength":32,
			"byteOffset":104444,
			"target":34962
		},
		{
			"buffer":0,
			"byteLength":12,
			"byteOffset":104476,
			"target":34963
		},
		{
			"buffer":0,
			"byteLength":48,
			"byteOffset":104488,
			"target":34962
		},
		{
			"buffer":0,
			"byteLength":48,
			"byteOffset":104536,
			"target":34962
		},
		{
			"buffer":0,
			"byteLength":32,
			"byteOffset":104584,
			"target":34962
		},
		{
			"buffer":0,
			"byteLength":792,
			"byteOffset":104616,
			"target":34962
		},
		{
			"buffer":0,
			"byteLength":792,
			"byteOffset":105408,
			"target":34962
		},
		{
			"buffer":0,
			"byteLength":528,
			"byteOffset":106200,
			"target":34962
		},
		{
			"buffer":0,
			"byteLength":240,
			"byteOffset":106728,
			"target":34963
		},
		{
			"buffer":0,
			"byteLength":131196,
			"byteOffset":106968,
			"target":34962
		},
		{
			"buffer":0,
			"byteLength":131196,
			"byteOffset":238164,
			"target":34962
		},
		{
			"buffer":0,
			"byteLength":87464,
			"byteOffset":369360,
			"target":34962
		},
		{
			"buffer":0,
			"byteLength":121080,
			"byteOffset":456824,
			"target":34963
		},
		{
			"buffer":0,
			"byteLength":131196,
			"byteOffset":577904,
			"target":34962
		},
		{
			"buffer":0,
			"byteLength":131196,
			"byteOffset":709100,
			"target":34962
		},
		{
			"buffer":0,
			"byteLength":87464,
			"byteOffset":840296,
			"target":34962
		},
		{
			"buffer":0,
			"byteLength":121080,
			"byteOffset":927760,
			"target":34963
		},
		{
			"buffer":0,
			"byteLength":9936,
			"byteOffset":1048840,
			"target":34962
		},
		{
			"buffer":0,
			"byteLength":9936,
			"byteOffset":1058776,
			"target":34962
		},
		{
			"buffer":0,
			"byteLength":6624,
			"byteOffset":1068712,
			"target":34962
		},
		{
			"buffer":0,
			"byteLength":9240,
			"byteOffset":1075336,
			"target":34963
		},
		{
			"buffer":0,
			"byteLength":50592,
			"byteOffset":1084576,
			"target":34962
		},
		{
			"buffer":0,
			"byteLength":50592,
			"byteOffset":1135168,
			"target":34962
		},
		{
			"buffer":0,
			"byteLength":33728,
			"byteOffset":1185760,
			"target":34962
		},
		{
			"buffer":0,
			"byteLength":41424,
			"byteOffset":1219488,
			"target":34963
		},
		{
			"buffer":0,
			"byteLength":3528,
			"byteOffset":1260912,
			"target":34962
		},
		{
			"buffer":0,
			"byteLength":3528,
			"byteOffset":1264440,
			"target":34962
		},
		{
			"buffer":0,
			"byteLength":2352,
			"byteOffset":1267968,
			"target":34962
		},
		{
			"buffer":0,
			"byteLength":2976,
			"byteOffset":1270320,
			"target":34963
		}
	],
	"buffers":[
		{
			"byteLength":1273296,
			"uri":"lukacs_biro_feleves_feladat__izzo_12_12_v20_texture_v01_uj.bin"
		}
	]
}
